HIERARCHY
ROOT Hips
{
  OFFSET -1.56614 0.00 -1.85809
  CHANNELS 6 Xposition Yposition Zposition Zrotation Xrotation Yrotation
  JOINT LHipJoint
  {
    OFFSET 0 0 0
    CHANNELS 3 Zrotation Xrotation Yrotation
    JOINT LeftUpLeg
    {
      OFFSET 1.8 -1.4 0.085
      CHANNELS 3 Zrotation Xrotation Yrotation
      JOINT LeftLeg
      {
        OFFSET 2.215 -6 0
        CHANNELS 3 Zrotation Xrotation Yrotation
        JOINT LeftFoot
        {
          OFFSET 2.5 -6.9 0
          CHANNELS 3 Zrotation Xrotation Yrotation
          JOINT LeftToeBase
          {
            OFFSET 0.2 -0.5 1.95
            CHANNELS 3 Zrotation Xrotation Yrotation
            End Site
            {
              OFFSET 0 0 1
            }
          }
        }
      }
    }
  }
  JOINT RHipJoint
  {
    OFFSET 0 0 0
    CHANNELS 3 Zrotation Xrotation Yrotation
    JOINT RightUpLeg
    {
      OFFSET -1.8 -1.4 0.085
      CHANNELS 3 Zrotation Xrotation Yrotation
      JOINT RightLeg
      {
        OFFSET -2.215 -6 0
        CHANNELS 3 Zrotation Xrotation Yrotation
        JOINT RightFoot
        {
          OFFSET -2.5 -6.9 0
          CHANNELS 3 Zrotation Xrotation Yrotation
          JOINT RightToeBase
          {
            OFFSET -0.2 -0.5 1.95
            CHANNELS 3 Zrotation Xrotation Yrotation
            End Site
            {
              OFFSET 0 0 1
            }
          }
        }
      }
    }
  }
  JOINT LowerBack
  {
    OFFSET 0 0 0
    CHANNELS 3 Zrotation Xrotation Yrotation
    JOINT Spine
    {
      OFFSET -0.087 1.94 -0.2889
      CHANNELS 3 Zrotation Xrotation Yrotation
      JOINT Spine1
      {
        OFFSET 0 1.95 0.06
        CHANNELS 3 Zrotation Xrotation Yrotation
        JOINT Neck
        {
          OFFSET 0 0 0
          CHANNELS 3 Zrotation Xrotation Yrotation
          JOINT Neck1
          {
            OFFSET 0 1.6 0.34
            CHANNELS 3 Zrotation Xrotation Yrotation
            JOINT Head
            {
              OFFSET 0 1.667 -0.24
              CHANNELS 3 Zrotation Xrotation Yrotation
              End Site
              {
                OFFSET 0 1.686 -0.12
              }
            }
          }
        }
        JOINT LeftShoulder
        {
          OFFSET 0 0 0
          CHANNELS 3 Zrotation Xrotation Yrotation
          JOINT LeftArm
          {
            OFFSET 2.7 1.55 -0.73
            CHANNELS 3 Zrotation Xrotation Yrotation
            JOINT LeftForeArm
            {
              OFFSET 5.45 0 0
              CHANNELS 3 Zrotation Xrotation Yrotation
              JOINT LeftHand
              {
                OFFSET 3.45 0 0
                CHANNELS 3 Zrotation Xrotation Yrotation
                JOINT LeftFingerBase
                {
                  OFFSET 0 0 0
                  CHANNELS 3 Zrotation Xrotation Yrotation
                  JOINT LeftHandIndex1
                  {
                    OFFSET 0.75 0 0
                    CHANNELS 3 Zrotation Xrotation Yrotation
                    End Site
                    {
                      OFFSET 0.6 0 0
                    }
                  }
                }
                JOINT LThumb
                {
                  OFFSET 0 0 0
                  CHANNELS 3 Zrotation Xrotation Yrotation
                  End Site
                  {
                    OFFSET 0.59 0 0.59
                  }
                }
              }
            }
          }
        }
        JOINT RightShoulder
        {
          OFFSET 0 0 0
          CHANNELS 3 Zrotation Xrotation Yrotation
          JOINT RightArm
          {
            OFFSET -2.7 1.55 -0.73
            CHANNELS 3 Zrotation Xrotation Yrotation
            JOINT RightForeArm
            {
              OFFSET -5.45 0 0
              CHANNELS 3 Zrotation Xrotation Yrotation
              JOINT RightHand
              {
                OFFSET -3.45 0 0
                CHANNELS 3 Zrotation Xrotation Yrotation
                JOINT RightFingerBase
                {
                  OFFSET 0 0 0
                  CHANNELS 3 Zrotation Xrotation Yrotation
                  JOINT RightHandIndex1
                  {
                    OFFSET -0.75 0 0
                    CHANNELS 3 Zrotation Xrotation Yrotation
                    End Site
                    {
                      OFFSET -0.6 0 0
                    }
                  }
                }
                JOINT RThumb
                {
                  OFFSET 0 0 0
                  CHANNELS 3 Zrotation Xrotation Yrotation
                  End Site
                  {
                    OFFSET -0.59 0 0.59
                  }
                }
              }
            }
          }
        }
      }
    }
  }
}
MOTION
Frames:	8
Frame Time:	0.00833333
0.32535 18.5102 -3.25716 -0.00379098 -0.00685163 -0.00017406 4.75886e-019 0 -0 -18.5738 -4.48337 1.54742 2.70506 4.15783 15.2839 -2.31031 0.983903 -16.9989 -7.68334e-016 0 -1.55301e-018 4.75886e-019 0 -0 19.3235 -0.999861 -0.282628 0.0764411 3.83415 -0.763002 0.536014 -2.81978 1.06983 1.89286e-015 0 -3.88251e-019 4.75886e-019 0 -0 -0.00427685 0.012055 -0.00191712 0.00594763 -0.00682041 -0.0029349 0.000509196 -16 0.00184736 -2.31904e-009 21 3.70266e-009 -0.00213164 10.9974 0.000831399 0.343588 -0.00160052 3.50149 -22.7861 -51.4299 -21.2265 6.39072 50.8223 0.00200391 -0.100645 1.94019 -3.08579 7.20594e-016 -3.97569e-016 -0 9.19379e-016 -5.96354e-016 -0 1.49089e-016 -3.97569e-016 1.59028e-015 -0.30129 0.0110125 -3.47094 23.1671 -35.9314 16.3876 -9.48749 27.6929 15.7388 20.6608 -3.18342 -10.5812 1.64534e-006 -7.81779e-007 8.83036e-007 -3.77691e-015 -1.59028e-015 -3.18055e-015 3.18055e-015 0 1.59028e-015 
0.324037 18.5101 -3.2579 -0.00379103 -0.0357188 -0.000114758 1.26925e-018 0 -0 -18.569 -4.52238 1.53765 2.71013 4.25059 15.3577 -2.31953 1.00048 -17.0154 -2.27034e-015 -1.2424e-017 -6.21202e-018 1.26925e-018 0 -0 19.3264 -0.945026 -0.297929 0.0757145 3.7941 -0.745857 0.552316 -2.81669 1.0689 -5.85902e-015 1.55301e-018 -1.55301e-018 1.26925e-018 0 -0 -0.0218298 0.062996 -0.0101111 0.0300484 -0.0356996 -0.0152565 0.000509196 -16 0.00184736 -2.31904e-009 21 3.70266e-009 -0.0107396 10.9865 0.0045195 0.343588 -0.00160052 3.50149 -22.7871 -51.437 -21.23 6.40356 50.8404 0.00200469 -0.10916 1.93378 -3.03761 4.47266e-016 0 -0 1.49089e-016 3.97569e-016 -1.59028e-015 -9.93923e-017 1.98785e-016 1.59028e-015 -0.30129 0.0110125 -3.47094 23.1791 -35.9293 16.3827 -9.49183 27.7004 15.733 20.6903 -3.18025 -10.5641 1.64534e-006 -7.81779e-007 8.83036e-007 2.5842e-015 -1.59028e-015 -3.18055e-015 1.19271e-015 -1.59028e-015 -1.59028e-015 
0.322729 18.51 -3.25863 -0.00379088 -0.0648197 6.54303e-005 1.09307e-018 0 -0 -18.5642 -4.56183 1.5277 2.71515 4.3441 15.4327 -2.32879 1.01744 -17.0327 9.55001e-016 -1.2424e-017 -1.2424e-017 1.09307e-018 0 -0 19.3294 -0.887722 -0.31415 0.0749244 3.75011 -0.727316 0.569303 -2.81231 1.06745 -3.91304e-015 6.21202e-018 -3.10601e-018 1.09307e-018 0 -0 -0.0394407 0.114372 -0.0183891 0.0541873 -0.0648344 -0.0276712 0.000509196 -16 0.00184736 -2.31904e-009 21 3.70266e-009 -0.0193593 10.9754 0.00826536 0.343588 -0.00160052 3.50149 -22.7881 -51.4444 -21.2335 6.41663 50.8587 0.00200547 -0.118607 1.92735 -2.98853 8.94531e-016 3.97569e-016 1.59028e-015 8.19987e-016 1.98785e-016 1.59028e-015 3.23025e-016 5.96354e-016 3.18055e-015 -0.30129 0.0110125 -3.47094 23.1912 -35.9272 16.3778 -9.49627 27.7081 15.7272 20.7204 -3.17704 -10.5467 1.64534e-006 -7.81779e-007 8.83036e-007 -5.96354e-016 0 -3.18055e-015 -3.18055e-015 2.38542e-015 -0 
0.321376 18.51 -3.25943 -0.00379268 -0.0913498 -0.00108413 1.43812e-018 2.48481e-017 -3.88251e-019 -18.5589 -4.59655 1.51983 2.71786 4.42859 15.4945 -2.33752 1.03024 -17.0416 3.77963e-015 -4.96962e-017 -0 1.43812e-018 2.48481e-017 -3.88251e-019 19.333 -0.857584 -0.320248 0.0751106 3.74941 -0.724164 0.578753 -2.8221 1.07159 -1.00511e-015 9.31803e-018 6.21202e-018 1.43812e-018 2.48481e-017 -3.88251e-019 -0.0562399 0.16096 -0.0257423 0.0777576 -0.0911575 -0.0390617 0.000509196 -16 0.00184736 -2.31904e-009 21 3.70266e-009 -0.0278332 10.9655 0.0113727 0.343588 -0.00160052 3.50149 -22.7888 -51.4493 -21.2359 6.42719 50.8757 0.0020062 -0.117667 1.9211 -2.94927 -4.72114e-016 1.98785e-016 1.59028e-015 -2.98177e-016 0 1.59028e-015 -1.01877e-015 3.97569e-016 3.18055e-015 -0.30129 0.0110125 -3.47094 23.203 -35.9248 16.3729 -9.49947 27.714 15.7213 20.7427 -3.17415 -10.5323 1.64534e-006 -7.81779e-007 8.83036e-007 -2.98177e-015 -1.59028e-015 -1.59028e-015 -1.39149e-015 -1.59028e-015 -1.59028e-015 
0.319929 18.51 -3.26039 -0.00382832 -0.112614 -0.00505877 -1.6076e-019 0 -1.55301e-018 -18.5521 -4.62161 1.51632 2.71602 4.49499 15.5288 -2.34521 1.0342 -17.0328 -1.57319e-015 -2.48481e-017 2.48481e-017 -1.6076e-019 0 -1.55301e-018 19.3384 -0.885512 -0.304641 0.0773993 3.84174 -0.754246 0.572084 -2.86249 1.0878 -1.86886e-015 -3.10601e-018 6.21202e-018 -1.6076e-019 0 -1.55301e-018 -0.0712712 0.197831 -0.0311693 0.100095 -0.111931 -0.0483095 0.000604473 -15.9999 0.00184736 0.000102856 21.0001 -4.12319e-005 -0.0361657 10.9581 0.013219 0.343588 -0.00160052 3.50149 -22.7893 -51.4491 -21.2366 6.43243 50.8899 0.00200682 -0.0947925 1.91523 -2.93076 3.97569e-016 0 -1.59028e-015 3.23025e-016 1.98785e-016 -1.59028e-015 -1.73937e-016 1.98785e-016 -0 -0.30129 0.0110125 -3.47094 23.214 -35.922 16.3683 -9.50011 27.7165 15.7153 20.7487 -3.1719 -10.524 1.64534e-006 -7.81779e-007 8.83036e-007 -3.97569e-015 -7.95139e-016 -3.18055e-015 4.41391e-032 1.59028e-015 -1.59028e-015 
0.318337 18.5102 -3.26153 -0.00469783 -0.129039 -0.0131882 3.82185e-019 0 -3.10601e-018 -18.5423 -4.63836 1.51809 2.70739 4.54905 15.5289 -2.35248 1.0246 -16.9957 5.4495e-015 -2.48481e-017 -0 3.82185e-019 0 -3.10601e-018 19.3476 -1.00407 -0.254156 0.0835379 4.08703 -0.841257 0.540008 -2.95525 1.12473 -7.55965e-015 0 -0 3.82185e-019 0 -3.10601e-018 -0.0827436 0.227237 -0.0343404 0.119993 -0.130841 -0.0549046 0.00225593 -15.998 0.00184734 0.00188576 21.002 -0.000755991 -0.0467543 10.9503 0.0146213 0.343588 -0.00160052 3.50149 -22.7899 -51.4416 -21.2356 6.42993 50.8996 0.00200724 -0.041394 1.90996 -2.94183 4.72114e-016 0 -1.59028e-015 3.72721e-016 -1.98785e-016 -1.59028e-015 -7.45443e-017 0 -0 -0.30129 0.0110125 -3.47094 23.2264 -35.9188 16.3658 -9.49852 27.7155 15.7081 20.7367 -3.17 -10.5213 1.64534e-006 -7.81779e-007 8.83036e-007 3.18055e-015 7.95139e-016 -4.77083e-015 -7.95139e-016 -7.95139e-016 3.18055e-015 
0.316673 18.5104 -3.26278 -0.00569437 -0.141692 -0.0234842 1.61367e-018 0 -6.21202e-018 -18.5313 -4.64825 1.5231 2.6954 4.5906 15.5084 -2.35904 1.00816 -16.9449 -6.15475e-016 0 -2.48481e-017 1.61367e-018 0 -6.21202e-018 19.3586 -1.16764 -0.186749 0.092582 4.40512 -0.954608 0.495596 -3.07215 1.17121 -1.7595e-015 -3.10601e-018 -0 1.61367e-018 0 -6.21202e-018 -0.0927787 0.249819 -0.0360874 0.138892 -0.146075 -0.0599023 0.00411064 -15.9958 0.00184732 0.00388817 21.0042 -0.00155874 -0.0574615 10.9441 0.0151863 0.343588 -0.00160052 3.50149 -22.79 -51.4302 -21.2328 6.42335 50.9072 0.00200756 0.0286559 1.90499 -2.96873 5.46658e-016 0 -0 4.72114e-016 0 -1.59028e-015 -2.48481e-017 0 1.59028e-015 -0.30129 0.0110125 -3.47094 23.2384 -35.9153 16.3637 -9.49511 27.712 15.7007 20.7127 -3.16852 -10.5231 1.64534e-006 -7.81779e-007 8.83036e-007 -4.17448e-015 -1.59028e-015 -7.95139e-015 5.76476e-015 1.59028e-015 1.59028e-015 
0.31504 18.5105 -3.26405 -0.0053893 -0.150959 -0.033159 1.37101e-018 0 -0 -18.5222 -4.65104 1.52893 2.68492 4.6139 15.484 -2.36406 0.994504 -16.901 2.53324e-015 2.48481e-017 9.93923e-017 1.37101e-018 0 -0 19.3674 -1.31026 -0.128735 0.101473 4.67747 -1.0482 0.457623 -3.17077 1.21042 1.12062e-015 -6.21202e-018 -6.21202e-018 1.37101e-018 0 -0 -0.104719 0.263867 -0.0373556 0.159056 -0.152676 -0.0645917 0.00372954 -15.9962 0.00184733 0.00347671 21.0038 -0.00139379 -0.0643475 10.9432 0.0138225 0.343588 -0.00160052 3.50149 -22.7911 -51.4193 -21.2307 6.41783 50.9161 0.00200795 0.0965748 1.89988 -2.99258 4.96962e-016 3.97569e-016 -1.59028e-015 4.47266e-016 3.97569e-016 -1.59028e-015 -4.96962e-017 3.97569e-016 -0 -0.30129 0.0110125 -3.47094 23.247 -35.9113 16.3588 -9.48988 27.7067 15.6947 20.6832 -3.16783 -10.5286 1.64534e-006 -7.81779e-007 8.83036e-007 7.95139e-016 7.95139e-016 -4.77083e-015 -5.96354e-016 0 -0 
